<mxfile host="Electron" agent="Mozilla/5.0 (Windows NT 10.0; Win64; x64) AppleWebKit/537.36 (KHTML, like Gecko) draw.io/28.1.2 Chrome/138.0.7204.243 Electron/37.4.0 Safari/537.36" version="28.1.2" pages="2">
  <diagram name="Página-1" id="s6go-QeFQaQv1ktkwuFG">
    <mxGraphModel dx="1042" dy="626" grid="1" gridSize="10" guides="1" tooltips="1" connect="1" arrows="1" fold="1" page="1" pageScale="1" pageWidth="1169" pageHeight="827" background="#ffffff" math="0" shadow="0" adaptiveColors="simple">
      <root>
        <mxCell id="0" />
        <mxCell id="1" parent="0" />
        <mxCell id="Kj3H2fOzpReChvTaFOCV-19" value="" style="edgeStyle=orthogonalEdgeStyle;rounded=0;orthogonalLoop=1;jettySize=auto;html=1;" edge="1" parent="1" source="Kj3H2fOzpReChvTaFOCV-60" target="Kj3H2fOzpReChvTaFOCV-18">
          <mxGeometry relative="1" as="geometry">
            <mxPoint x="520" y="239.79999999999995" as="sourcePoint" />
            <Array as="points" />
          </mxGeometry>
        </mxCell>
        <mxCell id="Kj3H2fOzpReChvTaFOCV-30" style="edgeStyle=orthogonalEdgeStyle;rounded=0;orthogonalLoop=1;jettySize=auto;html=1;" edge="1" parent="1" source="Kj3H2fOzpReChvTaFOCV-9" target="Kj3H2fOzpReChvTaFOCV-18">
          <mxGeometry relative="1" as="geometry" />
        </mxCell>
        <mxCell id="Kj3H2fOzpReChvTaFOCV-32" value="" style="edgeStyle=orthogonalEdgeStyle;rounded=0;orthogonalLoop=1;jettySize=auto;html=1;strokeColor=light-dark(#000000,#000000);align=center;verticalAlign=middle;fontFamily=Helvetica;fontSize=11;fontColor=default;labelBackgroundColor=default;startArrow=none;startFill=0;endArrow=classic;endFill=0;flowAnimation=1;curved=0;dashed=1;" edge="1" parent="1" source="Kj3H2fOzpReChvTaFOCV-34">
          <mxGeometry relative="1" as="geometry">
            <mxPoint x="340" y="380" as="sourcePoint" />
            <mxPoint x="320" y="220" as="targetPoint" />
            <Array as="points">
              <mxPoint x="250" y="220" />
            </Array>
          </mxGeometry>
        </mxCell>
        <mxCell id="Kj3H2fOzpReChvTaFOCV-9" value="" style="whiteSpace=wrap;html=1;shape=mxgraph.basic.document;fillColor=#eeeeee;noLabel=1;strokeColor=#36393d;" vertex="1" parent="1">
          <mxGeometry x="342" y="360" width="38" height="60" as="geometry" />
        </mxCell>
        <mxCell id="Kj3H2fOzpReChvTaFOCV-12" value="&lt;font style=&quot;color: light-dark(rgb(0, 0, 0), rgb(0, 0, 0));&quot;&gt;Arquivo&amp;nbsp;&lt;/font&gt;" style="text;whiteSpace=wrap;html=1;" vertex="1" parent="1">
          <mxGeometry x="342" y="420" width="60" height="40" as="geometry" />
        </mxCell>
        <mxCell id="Kj3H2fOzpReChvTaFOCV-16" style="edgeStyle=orthogonalEdgeStyle;rounded=0;orthogonalLoop=1;jettySize=auto;html=1;exitX=0.1;exitY=0.5;exitDx=0;exitDy=0;exitPerimeter=0;" edge="1" parent="1" source="Kj3H2fOzpReChvTaFOCV-13">
          <mxGeometry relative="1" as="geometry">
            <mxPoint x="310" y="420" as="targetPoint" />
          </mxGeometry>
        </mxCell>
        <mxCell id="Kj3H2fOzpReChvTaFOCV-27" style="edgeStyle=orthogonalEdgeStyle;rounded=0;orthogonalLoop=1;jettySize=auto;html=1;exitX=0.1;exitY=0.5;exitDx=0;exitDy=0;exitPerimeter=0;" edge="1" parent="1" source="Kj3H2fOzpReChvTaFOCV-13">
          <mxGeometry relative="1" as="geometry">
            <mxPoint x="410" y="390" as="targetPoint" />
          </mxGeometry>
        </mxCell>
        <mxCell id="Kj3H2fOzpReChvTaFOCV-28" style="edgeStyle=orthogonalEdgeStyle;rounded=0;orthogonalLoop=1;jettySize=auto;html=1;exitX=0.1;exitY=0.5;exitDx=0;exitDy=0;exitPerimeter=0;strokeColor=light-dark(#000000,#000000);flowAnimation=1;curved=0;startArrow=none;startFill=0;endArrow=classic;endFill=0;entryX=1;entryY=0.5;entryDx=0;entryDy=0;entryPerimeter=0;dashed=1;align=center;verticalAlign=middle;fontFamily=Helvetica;fontSize=11;fontColor=default;labelBackgroundColor=default;" edge="1" parent="1" source="Kj3H2fOzpReChvTaFOCV-13" target="Kj3H2fOzpReChvTaFOCV-9">
          <mxGeometry relative="1" as="geometry">
            <mxPoint x="400" y="390" as="targetPoint" />
            <Array as="points">
              <mxPoint x="462" y="390" />
              <mxPoint x="462" y="391" />
            </Array>
          </mxGeometry>
        </mxCell>
        <mxCell id="Kj3H2fOzpReChvTaFOCV-13" value="" style="shape=actor;whiteSpace=wrap;html=1;" vertex="1" parent="1">
          <mxGeometry x="520" y="360" width="40" height="60" as="geometry" />
        </mxCell>
        <mxCell id="Kj3H2fOzpReChvTaFOCV-15" value="&lt;font style=&quot;color: light-dark(rgb(0, 0, 0), rgb(0, 0, 0));&quot;&gt;Usuário&amp;nbsp;&lt;/font&gt;" style="text;whiteSpace=wrap;html=1;" vertex="1" parent="1">
          <mxGeometry x="520" y="420" width="60" height="40" as="geometry" />
        </mxCell>
        <mxCell id="Kj3H2fOzpReChvTaFOCV-51" style="edgeStyle=orthogonalEdgeStyle;rounded=0;orthogonalLoop=1;jettySize=auto;html=1;" edge="1" parent="1" source="Kj3H2fOzpReChvTaFOCV-18">
          <mxGeometry relative="1" as="geometry">
            <mxPoint x="450" y="224.25" as="targetPoint" />
          </mxGeometry>
        </mxCell>
        <mxCell id="Kj3H2fOzpReChvTaFOCV-68" style="edgeStyle=orthogonalEdgeStyle;rounded=0;orthogonalLoop=1;jettySize=auto;html=1;dashed=1;strokeColor=light-dark(#000000,#000000);align=center;verticalAlign=middle;fontFamily=Helvetica;fontSize=11;fontColor=default;labelBackgroundColor=default;startArrow=none;startFill=0;endArrow=classic;endFill=0;flowAnimation=1;curved=0;" edge="1" parent="1" source="Kj3H2fOzpReChvTaFOCV-18">
          <mxGeometry relative="1" as="geometry">
            <mxPoint x="480" y="224.25" as="targetPoint" />
          </mxGeometry>
        </mxCell>
        <mxCell id="Kj3H2fOzpReChvTaFOCV-18" value="" style="sketch=0;pointerEvents=1;shadow=0;dashed=0;html=1;strokeColor=none;fillColor=#FF8000;labelPosition=center;verticalLabelPosition=bottom;verticalAlign=top;align=center;outlineConnect=0;shape=mxgraph.veeam2.aws_s3;" vertex="1" parent="1">
          <mxGeometry x="330" y="189.25" width="64" height="70" as="geometry" />
        </mxCell>
        <mxCell id="Kj3H2fOzpReChvTaFOCV-71" value="" style="edgeStyle=orthogonalEdgeStyle;rounded=0;orthogonalLoop=1;jettySize=auto;html=1;" edge="1" parent="1" source="Kj3H2fOzpReChvTaFOCV-22" target="Kj3H2fOzpReChvTaFOCV-70">
          <mxGeometry relative="1" as="geometry" />
        </mxCell>
        <mxCell id="Kj3H2fOzpReChvTaFOCV-22" value="" style="outlineConnect=0;dashed=0;verticalLabelPosition=bottom;verticalAlign=top;align=center;html=1;shape=mxgraph.aws3.ec2;fillColor=#F58534;gradientColor=none;" vertex="1" parent="1">
          <mxGeometry x="615" y="187.75" width="70" height="71.5" as="geometry" />
        </mxCell>
        <mxCell id="Kj3H2fOzpReChvTaFOCV-24" value="&lt;font style=&quot;color: light-dark(rgb(0, 0, 0), rgb(0, 0, 0));&quot;&gt;EC2- Lambda&amp;nbsp;&lt;/font&gt;" style="text;whiteSpace=wrap;html=1;" vertex="1" parent="1">
          <mxGeometry x="615" y="258.5" width="80" height="40" as="geometry" />
        </mxCell>
        <mxCell id="Kj3H2fOzpReChvTaFOCV-25" value="&lt;font color=&quot;#000000&quot;&gt;S3&lt;/font&gt;" style="text;whiteSpace=wrap;html=1;" vertex="1" parent="1">
          <mxGeometry x="350" y="260" width="60" height="40" as="geometry" />
        </mxCell>
        <mxCell id="Kj3H2fOzpReChvTaFOCV-37" value="" style="edgeStyle=orthogonalEdgeStyle;rounded=0;orthogonalLoop=1;jettySize=auto;html=1;strokeColor=light-dark(#000000,#000000);align=center;verticalAlign=middle;fontFamily=Helvetica;fontSize=11;fontColor=default;labelBackgroundColor=default;startArrow=none;startFill=0;endArrow=classic;endFill=0;flowAnimation=1;curved=0;dashed=1;" edge="1" parent="1" target="Kj3H2fOzpReChvTaFOCV-34">
          <mxGeometry relative="1" as="geometry">
            <mxPoint x="340" y="380" as="sourcePoint" />
            <mxPoint x="320" y="220" as="targetPoint" />
            <Array as="points">
              <mxPoint x="250" y="380" />
            </Array>
          </mxGeometry>
        </mxCell>
        <mxCell id="Kj3H2fOzpReChvTaFOCV-39" style="edgeStyle=orthogonalEdgeStyle;rounded=0;orthogonalLoop=1;jettySize=auto;html=1;exitX=0.75;exitY=1;exitDx=0;exitDy=0;" edge="1" parent="1" source="Kj3H2fOzpReChvTaFOCV-34">
          <mxGeometry relative="1" as="geometry">
            <mxPoint x="250" y="240" as="targetPoint" />
          </mxGeometry>
        </mxCell>
        <mxCell id="Kj3H2fOzpReChvTaFOCV-34" value="&lt;font style=&quot;color: light-dark(rgb(0, 0, 0), rgb(0, 0, 0));&quot;&gt;Transferencia de Arquivo&amp;nbsp;&lt;/font&gt;" style="text;whiteSpace=wrap;html=1;fontFamily=Helvetica;fontSize=12;fontColor=default;" vertex="1" parent="1">
          <mxGeometry x="220" y="280" width="60" height="40" as="geometry" />
        </mxCell>
        <mxCell id="Kj3H2fOzpReChvTaFOCV-63" value="" style="edgeStyle=orthogonalEdgeStyle;rounded=0;orthogonalLoop=1;jettySize=auto;html=1;" edge="1" parent="1" target="Kj3H2fOzpReChvTaFOCV-60">
          <mxGeometry relative="1" as="geometry">
            <mxPoint x="520" y="239.79999999999995" as="sourcePoint" />
            <mxPoint x="394" y="224" as="targetPoint" />
            <Array as="points">
              <mxPoint x="520" y="210" />
              <mxPoint x="457" y="210" />
              <mxPoint x="457" y="224" />
            </Array>
          </mxGeometry>
        </mxCell>
        <mxCell id="Kj3H2fOzpReChvTaFOCV-60" value="&lt;font style=&quot;color: light-dark(rgb(0, 0, 0), rgb(0, 0, 0));&quot;&gt;Trigger&lt;/font&gt;" style="html=1;shape=mxgraph.infographic.ribbonSimple;notch1=20;notch2=0;align=center;verticalAlign=middle;fontSize=14;fontStyle=0;flipH=1;fillColor=#cce5ff;whiteSpace=wrap;strokeColor=#000000;" vertex="1" parent="1">
          <mxGeometry x="470" y="213.5" width="90" height="20" as="geometry" />
        </mxCell>
        <mxCell id="Kj3H2fOzpReChvTaFOCV-69" style="edgeStyle=orthogonalEdgeStyle;rounded=0;orthogonalLoop=1;jettySize=auto;html=1;entryX=0;entryY=0.5;entryDx=0;entryDy=0;entryPerimeter=0;dashed=1;strokeColor=light-dark(#000000,#000000);align=center;verticalAlign=middle;fontFamily=Helvetica;fontSize=11;fontColor=default;labelBackgroundColor=default;startArrow=none;startFill=0;endArrow=classic;endFill=0;flowAnimation=1;curved=0;" edge="1" parent="1" source="Kj3H2fOzpReChvTaFOCV-60" target="Kj3H2fOzpReChvTaFOCV-22">
          <mxGeometry relative="1" as="geometry" />
        </mxCell>
        <mxCell id="Kj3H2fOzpReChvTaFOCV-70" value="" style="outlineConnect=0;dashed=0;verticalLabelPosition=bottom;verticalAlign=top;align=center;html=1;shape=mxgraph.aws3.dynamo_db;fillColor=#2E73B8;gradientColor=none;" vertex="1" parent="1">
          <mxGeometry x="750" y="188.5" width="60" height="70" as="geometry" />
        </mxCell>
        <mxCell id="Kj3H2fOzpReChvTaFOCV-73" style="edgeStyle=orthogonalEdgeStyle;rounded=0;orthogonalLoop=1;jettySize=auto;html=1;entryX=0;entryY=0.5;entryDx=0;entryDy=0;entryPerimeter=0;dashed=1;strokeColor=light-dark(#000000,#000000);align=center;verticalAlign=middle;fontFamily=Helvetica;fontSize=11;fontColor=default;labelBackgroundColor=default;startArrow=none;startFill=0;endArrow=classic;endFill=0;flowAnimation=1;curved=0;" edge="1" parent="1" source="Kj3H2fOzpReChvTaFOCV-22" target="Kj3H2fOzpReChvTaFOCV-70">
          <mxGeometry relative="1" as="geometry" />
        </mxCell>
        <mxCell id="Kj3H2fOzpReChvTaFOCV-74" value="&lt;font style=&quot;color: light-dark(rgb(0, 0, 0), rgb(0, 0, 0));&quot;&gt;Dynamo DB&lt;/font&gt;" style="text;whiteSpace=wrap;html=1;" vertex="1" parent="1">
          <mxGeometry x="730" y="257.75" width="70" height="40" as="geometry" />
        </mxCell>
      </root>
    </mxGraphModel>
  </diagram>
  <diagram id="MbqpwMj2HqkKlJfOTqqR" name="Página-2">
    <mxGraphModel dx="1042" dy="626" grid="1" gridSize="10" guides="1" tooltips="1" connect="1" arrows="1" fold="1" page="1" pageScale="1" pageWidth="827" pageHeight="1169" math="0" shadow="0">
      <root>
        <mxCell id="0" />
        <mxCell id="1" parent="0" />
      </root>
    </mxGraphModel>
  </diagram>
</mxfile>
